<svg width="23" height="15" viewBox="0 0 23 15" fill="none" xmlns="http://www.w3.org/2000/svg">
<path d="M14.5522 1.52808H8.35742V12.7663H14.5522V1.52808Z" fill="#FF5F00"></path>
<path d="M8.75075 7.14718C8.74977 6.06485 8.99271 4.99649 9.46119 4.02297C9.92967 3.04945 10.6114 2.19629 11.4548 1.52807C10.4104 0.699321 9.15608 0.183936 7.83525 0.0408195C6.51442 -0.102297 5.18034 0.132624 3.98552 0.718743C2.79069 1.30486 1.78331 2.21853 1.07853 3.3553C0.373751 4.49208 0 5.8061 0 7.14718C0 8.48825 0.373751 9.80227 1.07853 10.939C1.78331 12.0758 2.79069 12.9895 3.98552 13.5756C5.18034 14.1617 6.51442 14.3966 7.83525 14.2535C9.15608 14.1104 10.4104 13.595 11.4548 12.7663C10.6114 12.0981 9.92968 11.2449 9.4612 10.2714C8.99272 9.29785 8.74977 8.2295 8.75075 7.14718V7.14718Z" fill="#EB001B"></path>
<path d="M22.909 7.14718C22.9091 8.48823 22.5354 9.80225 21.8306 10.939C21.1259 12.0758 20.1185 12.9895 18.9237 13.5756C17.7289 14.1617 16.3949 14.3967 15.0741 14.2535C13.7532 14.1104 12.499 13.595 11.4546 12.7663C12.2972 12.0974 12.9784 11.2441 13.4468 10.2707C13.9152 9.29735 14.1586 8.22933 14.1586 7.14718C14.1586 6.06503 13.9152 4.997 13.4468 4.02363C12.9784 3.05027 12.2972 2.19697 11.4546 1.52807C12.499 0.699324 13.7532 0.183933 15.0741 0.0408177C16.3949 -0.102298 17.7289 0.132634 18.9237 0.71876C20.1185 1.30488 21.1259 2.21856 21.8306 3.35533C22.5354 4.49211 22.9091 5.80612 22.909 7.14718V7.14718Z" fill="#F79E1B"></path>
</svg>