<svg width="40" height="40" viewBox="0 0 40 40" fill="none" xmlns="http://www.w3.org/2000/svg">
<path fill-rule="evenodd" clip-rule="evenodd" d="M20 0C31.0457 0 40 8.9543 40 20C40 31.0457 31.0457 40 20 40C8.9543 40 0 31.0457 0 20C0 8.9543 8.9543 0 20 0Z" fill="#00A8CE"></path>
<path d="M15.4545 20.4544C16.9636 20.4544 18.1818 19.2362 18.1818 17.7271C18.1818 16.218 16.9636 14.9998 15.4545 14.9998C13.9455 14.9998 12.7273 16.218 12.7273 17.7271C12.7273 19.2362 13.9455 20.4544 15.4545 20.4544ZM26.3636 14.9998H19.0909V21.3635H11.8182V13.1816H10V26.818H11.8182V24.0907H28.1818V26.818H30V18.6362C30 16.6271 28.3727 14.9998 26.3636 14.9998Z" fill="white"></path>
</svg>