<svg width="40" height="40" viewBox="0 0 40 40" fill="none" xmlns="http://www.w3.org/2000/svg">
<path fill-rule="evenodd" clip-rule="evenodd" d="M20 0C31.0457 0 40 8.9543 40 20C40 31.0457 31.0457 40 20 40C8.9543 40 0 31.0457 0 20C0 8.9543 8.9543 0 20 0Z" fill="#F3AF00"></path>
<path d="M22.4481 16.2617C22.4479 16.2647 22.4494 16.2675 22.4521 16.2688C25.8096 17.9589 28.2474 22.6646 28.2475 24.7734C28.2475 27.3688 28.622 30.9999 20.0004 31C11.3788 31 11.7524 27.8875 11.7524 24.7734C11.7524 22.2762 14.1276 17.9162 17.4173 16.2871C17.4232 16.2842 17.4266 16.2778 17.4257 16.2713C17.4243 16.2621 17.4315 16.2539 17.4408 16.2539H22.4408C22.445 16.2539 22.4484 16.2576 22.4481 16.2617ZM19.7465 19.2764C18.9028 19.2764 18.2349 19.4647 17.7563 19.8652C17.4027 20.1396 17.1433 20.5191 16.9825 20.9998C16.8567 21.3761 17.173 21.7275 17.5698 21.7275C17.9005 21.7275 18.1633 21.4746 18.2956 21.1716C18.5351 20.623 19.0168 20.3486 19.7465 20.3486C20.2375 20.3487 20.6148 20.4317 20.8666 20.6201C21.0934 20.8087 21.2202 21.1147 21.2202 21.5625C21.2202 21.9038 21.0553 22.212 20.7266 22.4662C20.7031 22.4844 20.682 22.4965 20.6561 22.5112C20.5708 22.5597 20.4738 22.5996 20.3757 22.5996H16.5346C16.3329 22.5996 16.1694 22.7631 16.1694 22.9648C16.1694 23.1666 16.3329 23.3301 16.5346 23.3301H17.4572C17.8302 23.3301 17.9465 23.863 17.6522 24.0923C17.6455 24.0975 17.6389 24.1027 17.6326 24.1079C17.6225 24.116 17.612 24.1223 17.6009 24.1289C17.5679 24.1487 17.5328 24.167 17.4943 24.167H16.5346C16.3329 24.167 16.1694 24.3305 16.1694 24.5322V24.5775C16.1694 24.7542 16.3126 24.8975 16.4893 24.8975C16.7255 24.8975 16.8873 25.1508 16.8505 25.3841C16.8321 25.5009 16.8237 25.6216 16.8237 25.7461C16.8237 26.5003 17.0631 27.078 17.5668 27.4551C18.0454 27.8322 18.7384 28.0205 19.6703 28.0205C20.5141 28.0205 21.182 27.8205 21.6606 27.4316C22.0037 27.1507 22.2594 26.7713 22.4195 26.2972C22.5464 25.9212 22.2307 25.5693 21.8339 25.5693C21.5035 25.5693 21.2408 25.8219 21.1089 26.1249C20.8701 26.6737 20.3906 26.9482 19.6703 26.9482C19.1666 26.9482 18.8011 26.8303 18.5493 26.6182C18.2975 26.4178 18.184 26.1232 18.184 25.7344C18.184 25.0938 19.0001 24.8975 19.6406 24.8975H22.8823C23.084 24.8975 23.2475 24.7339 23.2475 24.5322C23.2475 24.3305 23.084 24.167 22.8823 24.167H21.6946C21.2969 24.167 21.2267 23.5825 21.5592 23.3644C21.6223 23.3229 21.6503 23.3301 21.7259 23.3301H22.8823C23.084 23.3301 23.2475 23.1666 23.2475 22.9648V22.941C23.2475 22.7524 23.0947 22.5996 22.9061 22.5996C22.6436 22.5996 22.4737 22.3091 22.5356 22.0539C22.5726 21.9009 22.5922 21.741 22.5922 21.5742C22.5922 20.7965 22.3282 20.219 21.7993 19.8301C21.2955 19.453 20.6154 19.2764 19.7465 19.2764ZM19.936 9C21.1935 9.00014 20.9935 10.1883 22.5385 10.127C24.084 10.0652 24.8977 11.1138 23.8862 12.834C23.1307 14.1188 21.8067 15.0449 20.3162 15.0449H19.5548C18.0643 15.0449 16.7403 14.1189 15.9848 12.834C14.9737 11.114 15.7871 10.0653 17.3325 10.127C18.878 10.1885 18.678 9 19.936 9Z" fill="white"></path>
</svg>