<svg width="40" height="40" viewBox="0 0 40 40" fill="none" xmlns="http://www.w3.org/2000/svg">
<path fill-rule="evenodd" clip-rule="evenodd" d="M20 0C31.0457 0 40 8.9543 40 20C40 31.0457 31.0457 40 20 40C8.9543 40 0 31.0457 0 20C0 8.9543 8.9543 0 20 0Z" fill="#444DBD"></path>
<path fill-rule="evenodd" clip-rule="evenodd" d="M27.0887 10.0034C27.0071 10.0034 26.395 10.1259 26.3134 10.1259L17.5809 11.8805C17.3361 11.9213 17.1728 12.0029 17.0504 12.1253C16.8872 12.2478 16.8056 12.4518 16.7648 12.6966C16.7648 12.7374 16.7648 12.8599 16.7648 12.9823C16.7648 12.9823 16.7648 21.9188 16.7648 23.9183C16.7648 24.1631 16.7648 24.4079 16.5608 24.6528C16.3567 24.8976 16.1527 24.9384 15.9079 24.9792C15.7038 25.02 15.5406 25.0608 15.3366 25.1016C14.6021 25.2649 14.1532 25.3465 13.7043 25.5097C13.2963 25.6729 13.0106 25.8769 12.7658 26.1218C12.2761 26.6115 12.0721 27.3052 12.1537 27.9581C12.1945 28.4885 12.4394 29.019 12.8882 29.4271C13.1739 29.6719 13.5411 29.8759 13.9492 29.9575C14.398 30.0392 14.8469 29.9983 15.5406 29.8759C15.9079 29.7943 16.2343 29.6719 16.5608 29.5087C16.8872 29.3046 17.1728 29.0598 17.3769 28.7742C17.5809 28.4477 17.7441 28.1213 17.7849 27.754C17.8665 27.3868 17.8665 27.0603 17.8665 26.6523V17.1853C17.8665 16.6956 18.0298 16.5324 18.4378 16.4508C18.4378 16.4508 25.7013 14.9818 26.0277 14.9001C26.5174 14.8185 26.7214 14.941 26.7214 15.4306V21.9188C26.7214 22.1636 26.7214 22.4492 26.5582 22.6533C26.395 22.8573 26.1502 22.9389 25.9053 22.9797C25.7013 23.0205 25.5381 23.0613 25.334 23.1021C24.5995 23.2654 24.1507 23.347 23.7018 23.5102C23.2937 23.6734 23.0081 23.8775 22.7633 24.1223C22.2736 24.612 22.0696 25.3057 22.1512 25.9586C22.192 26.489 22.4776 27.0195 22.8857 27.4276C23.1713 27.6724 23.5386 27.8764 23.9466 27.9581C24.3955 28.0397 24.8444 27.9989 25.5381 27.8764C25.9053 27.7948 26.2318 27.7132 26.5582 27.5092C26.8847 27.3052 27.1703 27.0603 27.3743 26.7747C27.5784 26.489 27.7416 26.1218 27.7824 25.7545C27.864 25.3873 27.864 25.0608 27.864 24.6528V10.7787C27.8232 10.2891 27.5784 9.96263 27.0887 10.0034Z" fill="white"></path>
</svg>